<svg width="682" height="93" viewBox="0 0 682 93" fill="none" xmlns="http://www.w3.org/2000/svg">
<path d="M67.6152 68C66.4759 68 65.9062 67.3896 65.9062 66.1689V34.8213C65.9062 33.6006 66.4759 32.9902 67.6152 32.9902H76.7461C82.6055 32.9902 86.6663 33.9424 88.9287 35.8467C91.2074 37.751 92.3467 40.4528 92.3467 43.9521C92.3467 47.4515 91.2074 50.1533 88.9287 52.0576C86.6663 53.9619 82.6055 54.9141 76.7461 54.9141H73.0352V66.1689C73.0352 67.3896 72.4655 68 71.3262 68H67.6152ZM73.0352 48.957H76.7217C79.9769 48.957 82.1904 48.5745 83.3623 47.8096C84.5342 47.0283 85.1201 45.7425 85.1201 43.9521C85.1201 42.1618 84.5342 40.8841 83.3623 40.1191C82.1904 39.3379 79.9769 38.9473 76.7217 38.9473H73.0352V48.957ZM100.037 68C98.8978 68 98.3281 67.3896 98.3281 66.1689V34.8213C98.3281 33.6006 98.8978 32.9902 100.037 32.9902H111.341C116.37 32.9902 120.04 33.7715 122.352 35.334C124.663 36.8802 125.818 39.403 125.818 42.9023C125.818 45.5065 124.882 47.5817 123.011 49.1279C121.139 50.6742 118.763 51.6995 115.882 52.2041V52.2529C117.444 52.8389 118.624 53.6527 119.422 54.6943C120.219 55.736 120.87 56.6475 121.375 57.4287L126.746 65.9004C127.641 67.3001 127.332 68 125.818 68H121.57C120.675 68 119.943 67.5199 119.373 66.5596L114.441 58.332C113.904 57.4531 112.92 56.4928 111.487 55.4512C110.071 54.3932 108.663 53.8643 107.264 53.8643H105.457V66.1689C105.457 67.3896 104.887 68 103.748 68H100.037ZM105.457 47.8096H109.827C113.082 47.8096 115.394 47.4434 116.761 46.7109C118.144 45.9622 118.836 44.7822 118.836 43.1709C118.836 41.4131 118.169 40.2738 116.834 39.7529C115.516 39.2158 113.571 38.9473 110.999 38.9473H105.457V47.8096ZM131.385 50.4951C131.385 44.8799 132.833 40.4202 135.73 37.1162C138.628 33.8122 142.762 32.1602 148.133 32.1602C153.504 32.1602 157.638 33.8122 160.535 37.1162C163.432 40.4202 164.881 44.8799 164.881 50.4951C164.881 56.1104 163.432 60.57 160.535 63.874C157.638 67.1781 153.504 68.8301 148.133 68.8301C142.762 68.8301 138.628 67.1781 135.73 63.874C132.833 60.57 131.385 56.1104 131.385 50.4951ZM139.002 50.4951C139.002 54.5641 139.726 57.681 141.175 59.8457C142.64 61.9941 144.959 63.0684 148.133 63.0684C151.307 63.0684 153.618 61.9941 155.066 59.8457C156.531 57.681 157.264 54.5641 157.264 50.4951C157.264 46.4261 156.531 43.3174 155.066 41.1689C153.618 39.0042 151.307 37.9219 148.133 37.9219C144.959 37.9219 142.64 39.0042 141.175 41.1689C139.726 43.3174 139.002 46.4261 139.002 50.4951ZM169.08 50.4951C169.08 44.8799 170.545 40.4202 173.475 37.1162C176.404 33.8122 180.555 32.1602 185.926 32.1602C189.165 32.1602 191.704 32.5752 193.543 33.4053C195.398 34.2354 197.026 35.5212 198.426 37.2627C199.272 38.3206 199.248 39.1426 198.353 39.7285L195.569 41.5352C194.756 42.0723 193.885 41.8363 192.957 40.8271C192.192 39.9971 191.224 39.3053 190.052 38.752C188.88 38.1986 187.586 37.9219 186.17 37.9219C182.752 37.9219 180.319 39.0042 178.87 41.1689C177.422 43.3174 176.697 46.4261 176.697 50.4951C176.697 54.5641 177.422 57.681 178.87 59.8457C180.319 61.9941 182.752 63.0684 186.17 63.0684C187.83 63.0684 189.262 62.9056 190.467 62.5801C191.671 62.2383 192.811 61.6279 193.885 60.749V56.3789H188.587C187.366 56.3789 186.756 55.8499 186.756 54.792V51.9111C186.756 50.8532 187.366 50.3242 188.587 50.3242H199.183C200.403 50.3242 201.014 50.8532 201.014 51.9111V64.3135C198.735 65.9899 196.432 67.1618 194.104 67.8291C191.793 68.4964 189.067 68.8301 185.926 68.8301C180.636 68.8301 176.502 67.1781 173.523 63.874C170.561 60.57 169.08 56.1104 169.08 50.4951ZM209.363 68C208.224 68 207.654 67.3896 207.654 66.1689V34.8213C207.654 33.6006 208.224 32.9902 209.363 32.9902H220.667C225.696 32.9902 229.367 33.7715 231.678 35.334C233.989 36.8802 235.145 39.403 235.145 42.9023C235.145 45.5065 234.209 47.5817 232.337 49.1279C230.465 50.6742 228.089 51.6995 225.208 52.2041V52.2529C226.771 52.8389 227.951 53.6527 228.748 54.6943C229.546 55.736 230.197 56.6475 230.701 57.4287L236.072 65.9004C236.967 67.3001 236.658 68 235.145 68H230.896C230.001 68 229.269 67.5199 228.699 66.5596L223.768 58.332C223.23 57.4531 222.246 56.4928 220.813 55.4512C219.397 54.3932 217.99 53.8643 216.59 53.8643H214.783V66.1689C214.783 67.3896 214.214 68 213.074 68H209.363ZM214.783 47.8096H219.153C222.409 47.8096 224.72 47.4434 226.087 46.7109C227.47 45.9622 228.162 44.7822 228.162 43.1709C228.162 41.4131 227.495 40.2738 226.16 39.7529C224.842 39.2158 222.897 38.9473 220.325 38.9473H214.783V47.8096ZM241.419 68C240.247 68 239.865 67.4629 240.271 66.3887L252.234 34.9678C252.739 33.6494 253.504 32.9902 254.529 32.9902H257.947C258.973 32.9902 259.738 33.6494 260.242 34.9678L272.205 66.3887C272.612 67.4629 272.229 68 271.058 68H267.176C266.102 68 265.353 67.4385 264.93 66.3154L262.439 59.748H250.037L247.547 66.3154C247.124 67.4385 246.375 68 245.301 68H241.419ZM252.308 53.6934H260.169L257.166 45.9297C256.808 45.0182 256.588 44.359 256.507 43.9521C256.442 43.529 256.368 42.9105 256.287 42.0967H256.189C256.108 42.9105 256.027 43.529 255.945 43.9521C255.88 44.359 255.669 45.0182 255.311 45.9297L252.308 53.6934ZM278.26 68C277.12 68 276.551 67.3896 276.551 66.1689V34.8213C276.551 33.6006 277.12 32.9902 278.26 32.9902H285.34C286.284 32.9902 286.959 33.6413 287.366 34.9434L293.982 56.3545C294.275 57.2822 294.479 58.0472 294.593 58.6494C294.707 59.2354 294.804 59.9352 294.886 60.749H295.032C295.114 59.9352 295.211 59.2354 295.325 58.6494C295.439 58.0472 295.643 57.2822 295.936 56.3545L302.552 34.9434C302.959 33.6413 303.634 32.9902 304.578 32.9902H311.658C312.798 32.9902 313.367 33.6006 313.367 34.8213V66.1689C313.367 67.3896 312.798 68 311.658 68H307.947C306.808 68 306.238 67.3896 306.238 66.1689V46.0029C306.238 45.0264 306.279 44.0498 306.36 43.0732H306.189L299.134 66.0225C298.727 67.3408 298.027 68 297.034 68H292.884C291.891 68 291.191 67.3408 290.784 66.0225L283.729 43.0732H283.558C283.639 44.0498 283.68 45.0264 283.68 46.0029V66.1689C283.68 67.3896 283.11 68 281.971 68H278.26ZM322.889 68C321.749 68 321.18 67.3896 321.18 66.1689V34.8213C321.18 33.6006 321.749 32.9902 322.889 32.9902H326.6C327.739 32.9902 328.309 33.6006 328.309 34.8213V66.1689C328.309 67.3896 327.739 68 326.6 68H322.889ZM336.536 65.3877C335.527 64.6227 335.283 63.8496 335.804 63.0684L337.684 60.2363C338.302 59.3086 339.205 59.2598 340.394 60.0898C341.305 60.7246 342.493 61.3838 343.958 62.0674C345.439 62.7347 346.993 63.0684 348.621 63.0684C349.76 63.0684 350.859 62.9382 351.917 62.6777C352.975 62.4173 353.781 61.9128 354.334 61.1641C354.887 60.4154 355.164 59.5283 355.164 58.5029C355.164 57.7705 355.042 57.1276 354.798 56.5742C354.554 56.0208 354.155 55.5651 353.602 55.207C353.048 54.849 352.479 54.5479 351.893 54.3037C350.867 53.8805 349.573 53.4655 348.011 53.0586C346.465 52.6354 344.935 52.1309 343.421 51.5449C342.07 51.0241 340.833 50.3079 339.71 49.3965C338.587 48.485 337.716 47.4596 337.098 46.3203C336.479 45.181 336.17 43.6592 336.17 41.7549C336.17 39.4925 336.902 37.5557 338.367 35.9443C339.832 34.333 341.517 33.2995 343.421 32.8438C345.325 32.388 347.246 32.1602 349.183 32.1602C351.103 32.1602 353.081 32.4531 355.115 33.0391C357.166 33.625 358.712 34.3574 359.754 35.2363C360.779 36.099 361.032 36.8802 360.511 37.5801L358.533 40.2412C357.866 41.1527 356.971 41.2259 355.848 40.4609C355.132 39.9727 354.147 39.4274 352.894 38.8252C351.657 38.223 350.363 37.9219 349.012 37.9219C348.051 37.9219 347.164 38.0033 346.351 38.166C345.553 38.3288 344.845 38.7194 344.227 39.3379C343.608 39.9564 343.299 40.7214 343.299 41.6328C343.299 42.5117 343.527 43.2279 343.982 43.7812C344.438 44.3184 344.943 44.7253 345.496 45.002C346.049 45.2624 346.611 45.4821 347.181 45.6611C348.938 46.2308 350.509 46.7354 351.893 47.1748C353.276 47.598 354.554 48.07 355.726 48.5908C357.353 49.3232 358.598 50.0557 359.461 50.7881C360.324 51.5205 361.032 52.5215 361.585 53.791C362.155 55.0605 362.439 56.5742 362.439 58.332C362.439 60.9362 361.609 63.0928 359.949 64.8018C358.289 66.4945 356.442 67.585 354.407 68.0732C352.389 68.5778 350.42 68.8301 348.499 68.8301C345.667 68.8301 343.364 68.5534 341.59 68C339.816 67.4629 338.131 66.5921 336.536 65.3877ZM366.81 39.2402C365.589 39.2402 364.979 38.7113 364.979 37.6533V34.5771C364.979 33.5192 365.589 32.9902 366.81 32.9902H391.907C393.128 32.9902 393.738 33.5192 393.738 34.5771V37.6533C393.738 38.7113 393.128 39.2402 391.907 39.2402H382.923V66.6572C382.923 67.5524 382.516 68 381.702 68H377.015C376.201 68 375.794 67.5524 375.794 66.6572V39.2402H366.81ZM393.128 68C391.956 68 391.574 67.4629 391.98 66.3887L403.943 34.9678C404.448 33.6494 405.213 32.9902 406.238 32.9902H409.656C410.682 32.9902 411.447 33.6494 411.951 34.9678L423.914 66.3887C424.321 67.4629 423.938 68 422.767 68H418.885C417.811 68 417.062 67.4385 416.639 66.3154L414.148 59.748H401.746L399.256 66.3154C398.833 67.4385 398.084 68 397.01 68H393.128ZM404.017 53.6934H411.878L408.875 45.9297C408.517 45.0182 408.297 44.359 408.216 43.9521C408.151 43.529 408.077 42.9105 407.996 42.0967H407.898C407.817 42.9105 407.736 43.529 407.654 43.9521C407.589 44.359 407.378 45.0182 407.02 45.9297L404.017 53.6934Z" fill="#252525"/>
<path d="M447.059 68C445.919 68 445.35 67.3896 445.35 66.1689V34.8213C445.35 33.6006 445.919 32.9902 447.059 32.9902H450.77C451.909 32.9902 452.479 33.6006 452.479 34.8213V46.7598H465.613V34.8213C465.613 33.6006 466.183 32.9902 467.322 32.9902H471.033C472.173 32.9902 472.742 33.6006 472.742 34.8213V66.1689C472.742 67.3896 472.173 68 471.033 68H467.322C466.183 68 465.613 67.3896 465.613 66.1689V52.8145H452.479V66.1689C452.479 67.3896 451.909 68 450.77 68H447.059ZM479.31 39.2402C478.089 39.2402 477.479 38.7113 477.479 37.6533V34.5771C477.479 33.5192 478.089 32.9902 479.31 32.9902H504.407C505.628 32.9902 506.238 33.5192 506.238 34.5771V37.6533C506.238 38.7113 505.628 39.2402 504.407 39.2402H495.423V66.6572C495.423 67.5524 495.016 68 494.202 68H489.515C488.701 68 488.294 67.5524 488.294 66.6572V39.2402H479.31ZM512.684 68C511.544 68 510.975 67.3896 510.975 66.1689V34.8213C510.975 33.6006 511.544 32.9902 512.684 32.9902H519.764C520.708 32.9902 521.383 33.6413 521.79 34.9434L528.406 56.3545C528.699 57.2822 528.903 58.0472 529.017 58.6494C529.131 59.2354 529.228 59.9352 529.31 60.749H529.456C529.537 59.9352 529.635 59.2354 529.749 58.6494C529.863 58.0472 530.066 57.2822 530.359 56.3545L536.976 34.9434C537.382 33.6413 538.058 32.9902 539.002 32.9902H546.082C547.221 32.9902 547.791 33.6006 547.791 34.8213V66.1689C547.791 67.3896 547.221 68 546.082 68H542.371C541.232 68 540.662 67.3896 540.662 66.1689V46.0029C540.662 45.0264 540.703 44.0498 540.784 43.0732H540.613L533.558 66.0225C533.151 67.3408 532.451 68 531.458 68H527.308C526.315 68 525.615 67.3408 525.208 66.0225L518.152 43.0732H517.981C518.063 44.0498 518.104 45.0264 518.104 46.0029V66.1689C518.104 67.3896 517.534 68 516.395 68H512.684ZM557.312 68C556.173 68 555.604 67.3896 555.604 66.1689V34.8213C555.604 33.6006 556.173 32.9902 557.312 32.9902H561.268C562.244 32.9902 562.732 33.6006 562.732 34.8213V61.9453H576.966C578.187 61.9453 578.797 62.4743 578.797 63.5322V66.4131C578.797 67.471 578.187 68 576.966 68H557.312Z" fill="#FF1414"/>
<path d="M48.5462 71.5819L39.3871 83.0381L2.75114 53.7009C1.89272 53.0138 1.19973 52.1422 0.723503 51.1507C0.247272 50.1591 0 49.073 0 47.9728C0 46.8727 0.247272 45.7866 0.723503 44.795C1.19973 43.8035 1.89272 42.9319 2.75114 42.2448L39.3871 12.9077L48.5462 24.3638L19.0615 47.9728L48.5462 71.5819Z" fill="#252525"/>
<path d="M629.623 2.89948L612.623 92.7538L597.623 89.4372L616.365 0L629.623 2.89948Z" fill="#252525"/>
<path d="M632.684 24.3638L641.843 12.9077L660.161 27.5762L678.479 42.2448C679.338 42.9319 680.03 43.8035 680.507 44.795C680.983 45.7866 681.23 46.8727 681.23 47.9728C681.23 49.073 680.983 50.1591 680.507 51.1507C680.03 52.1422 679.338 53.0138 678.479 53.7009L641.843 83.0381L632.684 71.582L662.169 47.9728L632.684 24.3638Z" fill="#252525"/>
<path d="M67.6152 68C66.4759 68 65.9062 67.3896 65.9062 66.1689V34.8213C65.9062 33.6006 66.4759 32.9902 67.6152 32.9902H76.7461C82.6055 32.9902 86.6663 33.9424 88.9287 35.8467C91.2074 37.751 92.3467 40.4528 92.3467 43.9521C92.3467 47.4515 91.2074 50.1533 88.9287 52.0576C86.6663 53.9619 82.6055 54.9141 76.7461 54.9141H73.0352V66.1689C73.0352 67.3896 72.4655 68 71.3262 68H67.6152ZM73.0352 48.957H76.7217C79.9769 48.957 82.1904 48.5745 83.3623 47.8096C84.5342 47.0283 85.1201 45.7425 85.1201 43.9521C85.1201 42.1618 84.5342 40.8841 83.3623 40.1191C82.1904 39.3379 79.9769 38.9473 76.7217 38.9473H73.0352V48.957ZM100.037 68C98.8978 68 98.3281 67.3896 98.3281 66.1689V34.8213C98.3281 33.6006 98.8978 32.9902 100.037 32.9902H111.341C116.37 32.9902 120.04 33.7715 122.352 35.334C124.663 36.8802 125.818 39.403 125.818 42.9023C125.818 45.5065 124.882 47.5817 123.011 49.1279C121.139 50.6742 118.763 51.6995 115.882 52.2041V52.2529C117.444 52.8389 118.624 53.6527 119.422 54.6943C120.219 55.736 120.87 56.6475 121.375 57.4287L126.746 65.9004C127.641 67.3001 127.332 68 125.818 68H121.57C120.675 68 119.943 67.5199 119.373 66.5596L114.441 58.332C113.904 57.4531 112.92 56.4928 111.487 55.4512C110.071 54.3932 108.663 53.8643 107.264 53.8643H105.457V66.1689C105.457 67.3896 104.887 68 103.748 68H100.037ZM105.457 47.8096H109.827C113.082 47.8096 115.394 47.4434 116.761 46.7109C118.144 45.9622 118.836 44.7822 118.836 43.1709C118.836 41.4131 118.169 40.2738 116.834 39.7529C115.516 39.2158 113.571 38.9473 110.999 38.9473H105.457V47.8096ZM131.385 50.4951C131.385 44.8799 132.833 40.4202 135.73 37.1162C138.628 33.8122 142.762 32.1602 148.133 32.1602C153.504 32.1602 157.638 33.8122 160.535 37.1162C163.432 40.4202 164.881 44.8799 164.881 50.4951C164.881 56.1104 163.432 60.57 160.535 63.874C157.638 67.1781 153.504 68.8301 148.133 68.8301C142.762 68.8301 138.628 67.1781 135.73 63.874C132.833 60.57 131.385 56.1104 131.385 50.4951ZM139.002 50.4951C139.002 54.5641 139.726 57.681 141.175 59.8457C142.64 61.9941 144.959 63.0684 148.133 63.0684C151.307 63.0684 153.618 61.9941 155.066 59.8457C156.531 57.681 157.264 54.5641 157.264 50.4951C157.264 46.4261 156.531 43.3174 155.066 41.1689C153.618 39.0042 151.307 37.9219 148.133 37.9219C144.959 37.9219 142.64 39.0042 141.175 41.1689C139.726 43.3174 139.002 46.4261 139.002 50.4951ZM169.08 50.4951C169.08 44.8799 170.545 40.4202 173.475 37.1162C176.404 33.8122 180.555 32.1602 185.926 32.1602C189.165 32.1602 191.704 32.5752 193.543 33.4053C195.398 34.2354 197.026 35.5212 198.426 37.2627C199.272 38.3206 199.248 39.1426 198.353 39.7285L195.569 41.5352C194.756 42.0723 193.885 41.8363 192.957 40.8271C192.192 39.9971 191.224 39.3053 190.052 38.752C188.88 38.1986 187.586 37.9219 186.17 37.9219C182.752 37.9219 180.319 39.0042 178.87 41.1689C177.422 43.3174 176.697 46.4261 176.697 50.4951C176.697 54.5641 177.422 57.681 178.87 59.8457C180.319 61.9941 182.752 63.0684 186.17 63.0684C187.83 63.0684 189.262 62.9056 190.467 62.5801C191.671 62.2383 192.811 61.6279 193.885 60.749V56.3789H188.587C187.366 56.3789 186.756 55.8499 186.756 54.792V51.9111C186.756 50.8532 187.366 50.3242 188.587 50.3242H199.183C200.403 50.3242 201.014 50.8532 201.014 51.9111V64.3135C198.735 65.9899 196.432 67.1618 194.104 67.8291C191.793 68.4964 189.067 68.8301 185.926 68.8301C180.636 68.8301 176.502 67.1781 173.523 63.874C170.561 60.57 169.08 56.1104 169.08 50.4951ZM209.363 68C208.224 68 207.654 67.3896 207.654 66.1689V34.8213C207.654 33.6006 208.224 32.9902 209.363 32.9902H220.667C225.696 32.9902 229.367 33.7715 231.678 35.334C233.989 36.8802 235.145 39.403 235.145 42.9023C235.145 45.5065 234.209 47.5817 232.337 49.1279C230.465 50.6742 228.089 51.6995 225.208 52.2041V52.2529C226.771 52.8389 227.951 53.6527 228.748 54.6943C229.546 55.736 230.197 56.6475 230.701 57.4287L236.072 65.9004C236.967 67.3001 236.658 68 235.145 68H230.896C230.001 68 229.269 67.5199 228.699 66.5596L223.768 58.332C223.23 57.4531 222.246 56.4928 220.813 55.4512C219.397 54.3932 217.99 53.8643 216.59 53.8643H214.783V66.1689C214.783 67.3896 214.214 68 213.074 68H209.363ZM214.783 47.8096H219.153C222.409 47.8096 224.72 47.4434 226.087 46.7109C227.47 45.9622 228.162 44.7822 228.162 43.1709C228.162 41.4131 227.495 40.2738 226.16 39.7529C224.842 39.2158 222.897 38.9473 220.325 38.9473H214.783V47.8096ZM241.419 68C240.247 68 239.865 67.4629 240.271 66.3887L252.234 34.9678C252.739 33.6494 253.504 32.9902 254.529 32.9902H257.947C258.973 32.9902 259.738 33.6494 260.242 34.9678L272.205 66.3887C272.612 67.4629 272.229 68 271.058 68H267.176C266.102 68 265.353 67.4385 264.93 66.3154L262.439 59.748H250.037L247.547 66.3154C247.124 67.4385 246.375 68 245.301 68H241.419ZM252.308 53.6934H260.169L257.166 45.9297C256.808 45.0182 256.588 44.359 256.507 43.9521C256.442 43.529 256.368 42.9105 256.287 42.0967H256.189C256.108 42.9105 256.027 43.529 255.945 43.9521C255.88 44.359 255.669 45.0182 255.311 45.9297L252.308 53.6934ZM278.26 68C277.12 68 276.551 67.3896 276.551 66.1689V34.8213C276.551 33.6006 277.12 32.9902 278.26 32.9902H285.34C286.284 32.9902 286.959 33.6413 287.366 34.9434L293.982 56.3545C294.275 57.2822 294.479 58.0472 294.593 58.6494C294.707 59.2354 294.804 59.9352 294.886 60.749H295.032C295.114 59.9352 295.211 59.2354 295.325 58.6494C295.439 58.0472 295.643 57.2822 295.936 56.3545L302.552 34.9434C302.959 33.6413 303.634 32.9902 304.578 32.9902H311.658C312.798 32.9902 313.367 33.6006 313.367 34.8213V66.1689C313.367 67.3896 312.798 68 311.658 68H307.947C306.808 68 306.238 67.3896 306.238 66.1689V46.0029C306.238 45.0264 306.279 44.0498 306.36 43.0732H306.189L299.134 66.0225C298.727 67.3408 298.027 68 297.034 68H292.884C291.891 68 291.191 67.3408 290.784 66.0225L283.729 43.0732H283.558C283.639 44.0498 283.68 45.0264 283.68 46.0029V66.1689C283.68 67.3896 283.11 68 281.971 68H278.26ZM322.889 68C321.749 68 321.18 67.3896 321.18 66.1689V34.8213C321.18 33.6006 321.749 32.9902 322.889 32.9902H326.6C327.739 32.9902 328.309 33.6006 328.309 34.8213V66.1689C328.309 67.3896 327.739 68 326.6 68H322.889ZM336.536 65.3877C335.527 64.6227 335.283 63.8496 335.804 63.0684L337.684 60.2363C338.302 59.3086 339.205 59.2598 340.394 60.0898C341.305 60.7246 342.493 61.3838 343.958 62.0674C345.439 62.7347 346.993 63.0684 348.621 63.0684C349.76 63.0684 350.859 62.9382 351.917 62.6777C352.975 62.4173 353.781 61.9128 354.334 61.1641C354.887 60.4154 355.164 59.5283 355.164 58.5029C355.164 57.7705 355.042 57.1276 354.798 56.5742C354.554 56.0208 354.155 55.5651 353.602 55.207C353.048 54.849 352.479 54.5479 351.893 54.3037C350.867 53.8805 349.573 53.4655 348.011 53.0586C346.465 52.6354 344.935 52.1309 343.421 51.5449C342.07 51.0241 340.833 50.3079 339.71 49.3965C338.587 48.485 337.716 47.4596 337.098 46.3203C336.479 45.181 336.17 43.6592 336.17 41.7549C336.17 39.4925 336.902 37.5557 338.367 35.9443C339.832 34.333 341.517 33.2995 343.421 32.8438C345.325 32.388 347.246 32.1602 349.183 32.1602C351.103 32.1602 353.081 32.4531 355.115 33.0391C357.166 33.625 358.712 34.3574 359.754 35.2363C360.779 36.099 361.032 36.8802 360.511 37.5801L358.533 40.2412C357.866 41.1527 356.971 41.2259 355.848 40.4609C355.132 39.9727 354.147 39.4274 352.894 38.8252C351.657 38.223 350.363 37.9219 349.012 37.9219C348.051 37.9219 347.164 38.0033 346.351 38.166C345.553 38.3288 344.845 38.7194 344.227 39.3379C343.608 39.9564 343.299 40.7214 343.299 41.6328C343.299 42.5117 343.527 43.2279 343.982 43.7812C344.438 44.3184 344.943 44.7253 345.496 45.002C346.049 45.2624 346.611 45.4821 347.181 45.6611C348.938 46.2308 350.509 46.7354 351.893 47.1748C353.276 47.598 354.554 48.07 355.726 48.5908C357.353 49.3232 358.598 50.0557 359.461 50.7881C360.324 51.5205 361.032 52.5215 361.585 53.791C362.155 55.0605 362.439 56.5742 362.439 58.332C362.439 60.9362 361.609 63.0928 359.949 64.8018C358.289 66.4945 356.442 67.585 354.407 68.0732C352.389 68.5778 350.42 68.8301 348.499 68.8301C345.667 68.8301 343.364 68.5534 341.59 68C339.816 67.4629 338.131 66.5921 336.536 65.3877ZM366.81 39.2402C365.589 39.2402 364.979 38.7113 364.979 37.6533V34.5771C364.979 33.5192 365.589 32.9902 366.81 32.9902H391.907C393.128 32.9902 393.738 33.5192 393.738 34.5771V37.6533C393.738 38.7113 393.128 39.2402 391.907 39.2402H382.923V66.6572C382.923 67.5524 382.516 68 381.702 68H377.015C376.201 68 375.794 67.5524 375.794 66.6572V39.2402H366.81ZM393.128 68C391.956 68 391.574 67.4629 391.98 66.3887L403.943 34.9678C404.448 33.6494 405.213 32.9902 406.238 32.9902H409.656C410.682 32.9902 411.447 33.6494 411.951 34.9678L423.914 66.3887C424.321 67.4629 423.938 68 422.767 68H418.885C417.811 68 417.062 67.4385 416.639 66.3154L414.148 59.748H401.746L399.256 66.3154C398.833 67.4385 398.084 68 397.01 68H393.128ZM404.017 53.6934H411.878L408.875 45.9297C408.517 45.0182 408.297 44.359 408.216 43.9521C408.151 43.529 408.077 42.9105 407.996 42.0967H407.898C407.817 42.9105 407.736 43.529 407.654 43.9521C407.589 44.359 407.378 45.0182 407.02 45.9297L404.017 53.6934Z" fill="#252525"/>
<path d="M447.059 68C445.919 68 445.35 67.3896 445.35 66.1689V34.8213C445.35 33.6006 445.919 32.9902 447.059 32.9902H450.77C451.909 32.9902 452.479 33.6006 452.479 34.8213V46.7598H465.613V34.8213C465.613 33.6006 466.183 32.9902 467.322 32.9902H471.033C472.173 32.9902 472.742 33.6006 472.742 34.8213V66.1689C472.742 67.3896 472.173 68 471.033 68H467.322C466.183 68 465.613 67.3896 465.613 66.1689V52.8145H452.479V66.1689C452.479 67.3896 451.909 68 450.77 68H447.059ZM479.31 39.2402C478.089 39.2402 477.479 38.7113 477.479 37.6533V34.5771C477.479 33.5192 478.089 32.9902 479.31 32.9902H504.407C505.628 32.9902 506.238 33.5192 506.238 34.5771V37.6533C506.238 38.7113 505.628 39.2402 504.407 39.2402H495.423V66.6572C495.423 67.5524 495.016 68 494.202 68H489.515C488.701 68 488.294 67.5524 488.294 66.6572V39.2402H479.31ZM512.684 68C511.544 68 510.975 67.3896 510.975 66.1689V34.8213C510.975 33.6006 511.544 32.9902 512.684 32.9902H519.764C520.708 32.9902 521.383 33.6413 521.79 34.9434L528.406 56.3545C528.699 57.2822 528.903 58.0472 529.017 58.6494C529.131 59.2354 529.228 59.9352 529.31 60.749H529.456C529.537 59.9352 529.635 59.2354 529.749 58.6494C529.863 58.0472 530.066 57.2822 530.359 56.3545L536.976 34.9434C537.382 33.6413 538.058 32.9902 539.002 32.9902H546.082C547.221 32.9902 547.791 33.6006 547.791 34.8213V66.1689C547.791 67.3896 547.221 68 546.082 68H542.371C541.232 68 540.662 67.3896 540.662 66.1689V46.0029C540.662 45.0264 540.703 44.0498 540.784 43.0732H540.613L533.558 66.0225C533.151 67.3408 532.451 68 531.458 68H527.308C526.315 68 525.615 67.3408 525.208 66.0225L518.152 43.0732H517.981C518.063 44.0498 518.104 45.0264 518.104 46.0029V66.1689C518.104 67.3896 517.534 68 516.395 68H512.684ZM557.312 68C556.173 68 555.604 67.3896 555.604 66.1689V34.8213C555.604 33.6006 556.173 32.9902 557.312 32.9902H561.268C562.244 32.9902 562.732 33.6006 562.732 34.8213V61.9453H576.966C578.187 61.9453 578.797 62.4743 578.797 63.5322V66.4131C578.797 67.471 578.187 68 576.966 68H557.312Z" fill="#FF1414"/>
<path d="M48.5462 71.5819L39.3871 83.0381L2.75114 53.7009C1.89272 53.0138 1.19973 52.1422 0.723503 51.1507C0.247272 50.1591 0 49.073 0 47.9728C0 46.8727 0.247272 45.7866 0.723503 44.795C1.19973 43.8035 1.89272 42.9319 2.75114 42.2448L39.3871 12.9077L48.5462 24.3638L19.0615 47.9728L48.5462 71.5819Z" fill="#252525"/>
<path d="M629.623 2.89948L612.623 92.7538L597.623 89.4372L616.365 0L629.623 2.89948Z" fill="#252525"/>
<path d="M632.684 24.3638L641.843 12.9077L660.161 27.5762L678.479 42.2448C679.338 42.9319 680.03 43.8035 680.507 44.795C680.983 45.7866 681.23 46.8727 681.23 47.9728C681.23 49.073 680.983 50.1591 680.507 51.1507C680.03 52.1422 679.338 53.0138 678.479 53.7009L641.843 83.0381L632.684 71.582L662.169 47.9728L632.684 24.3638Z" fill="#252525"/>
</svg>
